<mxfile host="app.diagrams.net" agent="Mozilla/5.0 (Macintosh; Intel Mac OS X 10_15_7) AppleWebKit/537.36 (KHTML, like Gecko) Chrome/132.0.0.0 Safari/537.36" version="26.0.10">
  <diagram name="第 1 页" id="CLWAl7Uv6BVstPCbY0PA">
    <mxGraphModel dx="893" dy="455" grid="1" gridSize="10" guides="1" tooltips="1" connect="1" arrows="1" fold="1" page="1" pageScale="1" pageWidth="827" pageHeight="1169" math="0" shadow="0">
      <root>
        <mxCell id="0" />
        <mxCell id="1" parent="0" />
        <mxCell id="A3obOHkXwMJdT8IcUlnu-3" value="" style="rounded=0;whiteSpace=wrap;html=1;textOpacity=0;movable=0;resizable=0;rotatable=0;deletable=0;editable=0;locked=1;connectable=0;" vertex="1" parent="1">
          <mxGeometry x="20" y="80" width="881" height="360" as="geometry" />
        </mxCell>
        <mxCell id="vyVkkQDFkFN2ZyO-FKbN-2" value="Backbone" style="shape=trapezoid;perimeter=trapezoidPerimeter;whiteSpace=wrap;html=1;fixedSize=1;flipV=1;fillColor=#dae8fc;strokeColor=#6c8ebf;fontFamily=Times New Roman;" parent="1" vertex="1">
          <mxGeometry x="60" y="280" width="90" height="50" as="geometry" />
        </mxCell>
        <mxCell id="vyVkkQDFkFN2ZyO-FKbN-3" value="" style="shape=cube;whiteSpace=wrap;html=1;boundedLbl=1;backgroundOutline=1;darkOpacity=0.05;darkOpacity2=0.1;size=60;fillStyle=solid;flipH=1;spacingTop=-1;spacingLeft=0;spacing=2;fillColor=light-dark(#dff0d2, #ededed);strokeColor=#82b366;movable=1;resizable=1;rotatable=1;deletable=1;editable=1;locked=0;connectable=1;fontFamily=Times New Roman;" parent="1" vertex="1">
          <mxGeometry x="200" y="322" width="190" height="66" as="geometry" />
        </mxCell>
        <mxCell id="vyVkkQDFkFN2ZyO-FKbN-9" value="" style="shape=cube;whiteSpace=wrap;html=1;boundedLbl=1;backgroundOutline=1;darkOpacity=0.05;darkOpacity2=0.1;size=30;fillStyle=solid;flipH=1;spacingTop=-1;spacingLeft=0;spacing=2;fillColor=light-dark(#acd998, #1f2f1e);strokeColor=#82b366;movable=1;resizable=1;rotatable=1;deletable=1;editable=1;locked=0;connectable=1;fontFamily=Times New Roman;" parent="1" vertex="1">
          <mxGeometry x="230" y="248" width="116" height="37" as="geometry" />
        </mxCell>
        <mxCell id="vyVkkQDFkFN2ZyO-FKbN-11" value="" style="shape=cube;whiteSpace=wrap;html=1;boundedLbl=1;backgroundOutline=1;darkOpacity=0.05;darkOpacity2=0.1;size=20;fillStyle=solid;flipH=1;spacingTop=-1;spacingLeft=0;spacing=2;fillColor=light-dark(#8acc76, #1f2f1e);strokeColor=#82b366;movable=0;resizable=0;rotatable=0;deletable=0;editable=0;locked=1;connectable=0;" parent="1" vertex="1">
          <mxGeometry x="244" y="199" width="76" height="27" as="geometry" />
        </mxCell>
        <mxCell id="vyVkkQDFkFN2ZyO-FKbN-10" value="" style="shape=cube;whiteSpace=wrap;html=1;boundedLbl=1;backgroundOutline=1;darkOpacity=0.05;darkOpacity2=0.1;size=12;fillStyle=solid;flipH=1;spacingTop=-1;spacingLeft=0;spacing=2;fillColor=light-dark(#6fbf5d, #0c2100);strokeColor=#82b366;movable=0;resizable=0;rotatable=0;deletable=0;editable=0;locked=1;connectable=0;" parent="1" vertex="1">
          <mxGeometry x="255" y="160" width="44" height="18" as="geometry" />
        </mxCell>
        <mxCell id="A3obOHkXwMJdT8IcUlnu-4" value="" style="rounded=0;whiteSpace=wrap;html=1;fontFamily=Times New Roman;" vertex="1" parent="1">
          <mxGeometry x="400" y="130" width="310" height="160" as="geometry" />
        </mxCell>
        <mxCell id="A3obOHkXwMJdT8IcUlnu-5" value="" style="rounded=0;whiteSpace=wrap;html=1;fontFamily=Times New Roman;" vertex="1" parent="1">
          <mxGeometry x="400" y="297" width="306" height="100" as="geometry" />
        </mxCell>
        <mxCell id="A3obOHkXwMJdT8IcUlnu-6" value="" style="rounded=0;whiteSpace=wrap;html=1;fontFamily=Times New Roman;" vertex="1" parent="1">
          <mxGeometry x="720" y="104" width="120" height="293" as="geometry" />
        </mxCell>
        <mxCell id="A3obOHkXwMJdT8IcUlnu-8" value="" style="endArrow=classic;html=1;rounded=0;entryX=0;entryY=0;entryDx=125;entryDy=66;entryPerimeter=0;exitX=0.5;exitY=1;exitDx=0;exitDy=0;fontFamily=Times New Roman;" edge="1" parent="1" source="vyVkkQDFkFN2ZyO-FKbN-2" target="vyVkkQDFkFN2ZyO-FKbN-3">
          <mxGeometry width="50" height="50" relative="1" as="geometry">
            <mxPoint x="120" y="440" as="sourcePoint" />
            <mxPoint x="170" y="390" as="targetPoint" />
            <Array as="points">
              <mxPoint x="105" y="400" />
              <mxPoint x="265" y="400" />
            </Array>
          </mxGeometry>
        </mxCell>
        <mxCell id="A3obOHkXwMJdT8IcUlnu-12" value="" style="endArrow=classic;html=1;rounded=0;entryX=0.558;entryY=1.057;entryDx=0;entryDy=0;entryPerimeter=0;fontFamily=Times New Roman;" edge="1" parent="1">
          <mxGeometry width="50" height="50" relative="1" as="geometry">
            <mxPoint x="280" y="260" as="sourcePoint" />
            <mxPoint x="279.5920000000001" y="227.539" as="targetPoint" />
          </mxGeometry>
        </mxCell>
        <mxCell id="A3obOHkXwMJdT8IcUlnu-13" value="" style="endArrow=classic;html=1;rounded=0;entryX=0;entryY=0;entryDx=28;entryDy=18;entryPerimeter=0;fontFamily=Times New Roman;" edge="1" parent="1">
          <mxGeometry width="50" height="50" relative="1" as="geometry">
            <mxPoint x="279" y="211" as="sourcePoint" />
            <mxPoint x="279" y="178" as="targetPoint" />
          </mxGeometry>
        </mxCell>
        <mxCell id="A3obOHkXwMJdT8IcUlnu-14" value="" style="endArrow=none;dashed=1;html=1;rounded=0;entryX=0;entryY=0;entryDx=73;entryDy=37;entryPerimeter=0;dashPattern=1 4;strokeWidth=2;fontFamily=Times New Roman;" edge="1" parent="1">
          <mxGeometry width="50" height="50" relative="1" as="geometry">
            <mxPoint x="279" y="350" as="sourcePoint" />
            <mxPoint x="279" y="285" as="targetPoint" />
          </mxGeometry>
        </mxCell>
        <mxCell id="A3obOHkXwMJdT8IcUlnu-18" value="S5" style="text;html=1;align=center;verticalAlign=middle;whiteSpace=wrap;rounded=0;fontSize=10;fontFamily=Times New Roman;" vertex="1" parent="1">
          <mxGeometry x="239" y="154" width="60" height="30" as="geometry" />
        </mxCell>
        <mxCell id="A3obOHkXwMJdT8IcUlnu-19" value="S3" style="text;html=1;align=center;verticalAlign=middle;whiteSpace=wrap;rounded=0;fontSize=10;fontFamily=Times New Roman;" vertex="1" parent="1">
          <mxGeometry x="218" y="255.5" width="60" height="30" as="geometry" />
        </mxCell>
        <mxCell id="A3obOHkXwMJdT8IcUlnu-20" value="S4" style="text;html=1;align=center;verticalAlign=middle;whiteSpace=wrap;rounded=0;fontSize=10;fontFamily=Times New Roman;" vertex="1" parent="1">
          <mxGeometry x="231" y="198" width="60" height="30" as="geometry" />
        </mxCell>
        <mxCell id="A3obOHkXwMJdT8IcUlnu-22" value="S1" style="text;html=1;align=center;verticalAlign=middle;whiteSpace=wrap;rounded=0;fontSize=10;fontFamily=Times New Roman;" vertex="1" parent="1">
          <mxGeometry x="191" y="360" width="60" height="30" as="geometry" />
        </mxCell>
      </root>
    </mxGraphModel>
  </diagram>
</mxfile>
